HIERARCHY
ROOT RootJoint
{
    OFFSET   0.000000   0.000000   0.000000
    CHANNELS 6 Xposition Yposition Zposition Xrotation Yrotation Zrotation
    JOINT pelvis_lowerback
    {
        OFFSET   0.000000   0.093605   0.000000
        CHANNELS 3 Xrotation Yrotation Zrotation
        JOINT lowerback_torso
        {
            OFFSET   0.000000   0.100000   0.000000
            CHANNELS 3 Xrotation Yrotation Zrotation
            JOINT torso_head
            {
                OFFSET   0.000000   0.282350   0.000000
                CHANNELS 3 Xrotation Yrotation Zrotation
                End Site
                {
                    OFFSET   0.000000   0.192650   0.000000
                }
            }
            JOINT rTorso_Clavicle
            {
                OFFSET  -0.001000   0.157500   0.000000
                CHANNELS 3 Xrotation Yrotation Zrotation
                JOINT rShoulder
                {
                    OFFSET  -0.117647   0.000000   0.000000
                    CHANNELS 3 Xrotation Yrotation Zrotation
                    JOINT rElbow
                    {
                        OFFSET  -0.245000   0.000000   0.000000
                        CHANNELS 3 Xrotation Yrotation Zrotation
                        JOINT rWrist
                        {
                            OFFSET  -0.240000   0.000000   0.000000
                            CHANNELS 3 Xrotation Yrotation Zrotation
                            End Site
                            {
                                OFFSET  -0.116353  -0.002500   0.000000
                            }
                        }
                    }
                }
            }
            JOINT lTorso_Clavicle
            {
                OFFSET   0.001000   0.157500   0.000000
                CHANNELS 3 Xrotation Yrotation Zrotation
                JOINT lShoulder
                {
                    OFFSET   0.117647   0.000000   0.000000
                    CHANNELS 3 Xrotation Yrotation Zrotation
                    JOINT lElbow
                    {
                        OFFSET   0.245000   0.000000   0.000000
                        CHANNELS 3 Xrotation Yrotation Zrotation
                        JOINT lWrist
                        {
                            OFFSET   0.240000   0.000000   0.000000
                            CHANNELS 3 Xrotation Yrotation Zrotation
                            End Site
                            {
                                OFFSET   0.116353  -0.002500   0.000000
                            }
                        }
                    }
                }
            }
        }
    }
    JOINT rHip
    {
        OFFSET  -0.100000  -0.051395   0.000000
        CHANNELS 3 Xrotation Yrotation Zrotation
        JOINT rKnee
        {
            OFFSET   0.000000  -0.410000   0.000000
            CHANNELS 3 Xrotation Yrotation Zrotation
            JOINT rAnkle
            {
                OFFSET   0.000000  -0.390000   0.000000
                CHANNELS 3 Xrotation Yrotation Zrotation
                JOINT rToeJoint
                {
                    OFFSET   0.000000  -0.050000   0.130000
                    CHANNELS 3 Xrotation Yrotation Zrotation
                    End Site
                    {
                        OFFSET  -0.010000   0.002000   0.060000
                    }
                }
            }
        }
    }
    JOINT lHip
    {
        OFFSET   0.100000  -0.051395   0.000000
        CHANNELS 3 Xrotation Yrotation Zrotation
        JOINT lKnee
        {
            OFFSET   0.000000  -0.410000   0.000000
            CHANNELS 3 Xrotation Yrotation Zrotation
            JOINT lAnkle
            {
                OFFSET   0.000000  -0.390000   0.000000
                CHANNELS 3 Xrotation Yrotation Zrotation
                JOINT lToeJoint
                {
                    OFFSET   0.000000  -0.050000   0.130000
                    CHANNELS 3 Xrotation Yrotation Zrotation
                    End Site
                    {
                        OFFSET   0.010000   0.002000   0.060000
                    }
                }
            }
        }
    }
}
MOTION
Frames: 10
Frame Time:   0.008333
 -1.668967   0.903894   5.680854 -32.428596  51.780678   8.798559  14.527599  -0.824653   7.028728   1.992414   0.451003   5.861889   3.005970   0.815632   2.887161   3.700991 -11.469075   4.864970   7.423570   6.009238  41.869322  -0.003322  55.603869   0.000606   1.289697   4.748985  -6.546615   7.364041  10.364179  -5.971277  13.637842  -3.230761 -53.341442  -0.010544 -42.088636   0.001735  -0.500366  -3.138305   0.195744 -27.359594  -3.100769 -11.431301  62.324653  -0.078556   0.040167  -2.934310 -11.587335   5.528483  -8.788172   0.016717  -0.006474  -4.836599   9.680573  14.787165  34.059418   0.002610   0.007267 -15.008627  14.271605   3.990904  -0.272069  -0.000286   0.000610
 -1.666584   0.903161   5.681241 -32.937680  51.987210   8.873667  15.001406  -0.911706   7.346893   1.911639   0.557159   6.062865   3.095768   0.788740   2.795515   3.721568 -11.479084   4.921002   6.867933   6.112174  41.576422  -0.004037  56.017406   0.001282   1.180189   4.420143  -6.665648   7.204145  10.295469  -5.914970  13.157062  -2.965731 -52.849701  -0.014772 -42.676643  -0.002975  -0.685520  -3.436390  -0.006483 -29.028941  -2.744607 -12.594698  59.150398  -0.088689   0.053982  -3.515484 -11.575841   6.018386  -8.293016   0.010131  -0.007149  -4.864776   9.718172  15.242380  34.739589   0.002897   0.007953 -15.582800  13.877159   3.802322  -0.191564  -0.000072   0.000484
 -1.664316   0.902236   5.681721 -33.408444  52.094908   8.989730  15.464427  -0.946230   7.585630   1.814975   0.710480   6.248952   3.178907   0.759089   2.700081   3.680115 -11.420756   4.975966   6.295147   6.263532  41.315827  -0.004404  56.435304   0.001675   1.080809   4.215235  -6.844017   7.040331  10.243003  -5.748190  12.695964  -2.686327 -52.288066  -0.018758 -43.216696  -0.006820  -0.870476  -3.700832   0.024487 -30.693742  -2.433737 -13.734523  55.837244  -0.094729   0.066228  -4.066458 -11.562556   6.480370  -7.795404   0.004351  -0.007469  -4.879653   9.814984  15.624329  35.425749   0.003048   0.008244 -16.157335  13.532474   3.629966  -0.122389   0.000063   0.000385
 -1.662063   0.901200   5.682401 -33.923809  52.182556   9.183209  15.911179  -0.955012   7.795980   1.726004   0.879724   6.437761   3.258985   0.730213   2.605177   3.608640 -11.325617   5.025837   5.732839   6.437252  41.075536  -0.004351  56.840675   0.001716   0.994806   4.108169  -7.033462   6.879963  10.192941  -5.518120  12.257996  -2.413202 -51.702978  -0.022074 -43.716716  -0.009908  -1.044658  -3.931001   0.194468 -32.308562  -2.120008 -14.808480  52.641461  -0.097928   0.072647  -4.585801 -11.551047   6.911355  -7.337721   0.000052  -0.007004  -4.852124   9.912109  15.968911  36.118769   0.003118   0.008411 -16.731796  13.206985   3.483735  -0.066631   0.000129   0.000307
 -1.659772   0.900125   5.683311 -34.498951  52.283995   9.453695  16.332170  -0.948558   8.002362   1.643246   1.052428   6.635413   3.335616   0.702731   2.514659   3.524605 -11.214457   5.072092   5.193807   6.617585  40.852503  -0.003943  57.226391   0.001491   0.918044   4.055553  -7.220654   6.726356  10.145529  -5.259985  11.843582  -2.152723 -51.120369  -0.024599 -44.180762  -0.012398  -1.208788  -4.135737   0.440280 -33.859703  -1.791894 -15.812293  49.635781  -0.098803   0.073574  -5.073581 -11.541574   7.312537  -6.926383  -0.002889  -0.005961  -4.775949   9.989359  16.291297  36.804170   0.003125   0.008536 -17.300081  12.883351   3.360274  -0.022849   0.000151   0.000245
 -1.657422   0.899056   5.684447 -35.130316  52.410495   9.792406  16.721804  -0.931210   8.215218   1.562492   1.223967   6.843102   3.407554   0.676930   2.430404   3.436922 -11.097641   5.116722   4.683390   6.796925  40.646026  -0.003279  57.589874   0.001098   0.847460   4.030889  -7.400150   6.581783  10.101848  -4.994798  11.453131  -1.907506 -50.555678  -0.026347 -44.612186  -0.014380  -1.364160  -4.322559   0.724208 -35.344508  -1.448158 -16.749604  46.832692  -0.097615   0.070511  -5.531042 -11.533925   7.685766  -6.559927  -0.004771  -0.004628  -4.651846  10.041730  16.598162  37.468892   0.003079   0.008623 -17.856636  12.555294   3.254416   0.010914   0.000149   0.000195
 -1.655015   0.898020   5.685796 -35.809885  52.563453  10.189915  17.078130  -0.905059   8.437944   1.480796   1.392783   7.059802   3.473991   0.652887   2.353040   3.349846 -10.979842   5.161216   4.203013   6.971975  40.455800  -0.002459  57.930860   0.000611   0.781322   4.020844  -7.568793   6.447430  10.062514  -4.734300  11.086629  -1.678292 -50.017193  -0.027393 -45.013783  -0.015907  -1.511746  -4.496489   1.023558 -36.764322  -1.091199 -17.624638  44.225397  -0.094629   0.064960  -5.959765 -11.527769   8.033019  -6.234626  -0.005882  -0.003230  -4.483351  10.069653  16.892832  38.104593   0.002988   0.008662 -18.397520  12.221823   3.162090   0.036244   0.000135   0.000156
 -1.652707   0.896901   5.687697 -36.467822  52.685133  10.728460  17.338823  -0.775495   8.419871   1.373001   1.538901   7.256945   3.589119   0.610775   2.347841   3.240832 -10.919903   5.214253   3.567129   7.027360  40.446560  -0.003226  58.485904   0.002227   0.715092   3.812785  -7.630928   6.242130  10.166915  -4.336587  10.252644  -1.170185 -49.039906  -0.026730 -45.197364  -0.016530  -1.612931  -4.691461   0.707832 -38.684905  -1.157337 -18.609868  43.063257  -0.078074   0.060939  -5.841539 -11.493016   8.879160  -5.779469  -0.009503  -0.004854  -4.217025  10.002279  16.979215  38.673857   0.002547   0.007785 -18.865576  11.886571   3.146614   0.035766   0.000108   0.000126
 -1.650308   0.895942   5.689852 -37.164927  52.814196  11.289933  17.561919  -0.627069   8.413633   1.243723   1.692979   7.475334   3.702691   0.572840   2.331479   3.104248 -10.838819   5.244936   2.942918   7.099089  40.429587  -0.003790  59.024229   0.003403   0.658937   3.705632  -7.759915   6.000221  10.264594  -3.798712   9.421351  -0.673402 -47.968156  -0.026058 -45.357496  -0.016768  -1.714636  -4.826871   0.746848 -40.543397  -1.284726 -19.444062  42.241326  -0.062998   0.054894  -5.716231 -11.454451   9.674514  -5.351321  -0.012203  -0.005849  -3.880852   9.899642  17.070287  39.179200   0.002068   0.006889 -19.302321  11.555232   3.139428   0.027727   0.000090   0.000114
 -1.647761   0.895125   5.692075 -37.849781  52.970430  11.851037  17.732950  -0.483058   8.432878   1.087149   1.846320   7.716497   3.804980   0.537898   2.310696   2.951296 -10.739674   5.249726   2.339259   7.181579  40.399662  -0.004010  59.535651   0.004133   0.613196   3.662093  -7.923280   5.751300  10.350830  -3.192643   8.616820  -0.208667 -46.881384  -0.025406 -45.506866  -0.016794  -1.809569  -4.951984   0.999446 -42.289642  -1.409106 -20.168397  41.540316  -0.050347   0.048585  -5.598834 -11.413559  10.417623  -4.966008  -0.013897  -0.006046  -3.521714   9.784738  17.149023  39.619721   0.001679   0.006111 -19.715924  11.236464   3.135107   0.017624   0.000078   0.000106
